<mxfile host="app.diagrams.net" modified="2023-04-19T08:52:51.241Z" agent="Mozilla/5.0 (Macintosh; Intel Mac OS X 10_15_7) AppleWebKit/537.36 (KHTML, like Gecko) Chrome/112.0.0.0 Safari/537.36" etag="hgWXzD9AVnKQ6qbg6IB1" version="21.1.7" type="device">
  <diagram name="第 1 页" id="DIS-a7JCFXylYAiXsbyC">
    <mxGraphModel dx="2261" dy="796" grid="1" gridSize="10" guides="1" tooltips="1" connect="1" arrows="1" fold="1" page="1" pageScale="1" pageWidth="827" pageHeight="1169" math="0" shadow="0">
      <root>
        <mxCell id="0" />
        <mxCell id="1" parent="0" />
        <mxCell id="f1cEgaaGwQFkEPlIWTJT-1" value="&lt;font style=&quot;font-size: 14px;&quot;&gt;Header&lt;/font&gt;" style="rounded=0;whiteSpace=wrap;html=1;" vertex="1" parent="1">
          <mxGeometry x="70" y="310" width="120" height="60" as="geometry" />
        </mxCell>
        <mxCell id="f1cEgaaGwQFkEPlIWTJT-2" value="Thread_01" style="rounded=0;whiteSpace=wrap;html=1;" vertex="1" parent="1">
          <mxGeometry x="190" y="310" width="120" height="60" as="geometry" />
        </mxCell>
        <mxCell id="f1cEgaaGwQFkEPlIWTJT-3" value="Thread_02" style="rounded=0;whiteSpace=wrap;html=1;" vertex="1" parent="1">
          <mxGeometry x="310" y="310" width="120" height="60" as="geometry" />
        </mxCell>
        <mxCell id="f1cEgaaGwQFkEPlIWTJT-4" value="。。。" style="rounded=0;whiteSpace=wrap;html=1;" vertex="1" parent="1">
          <mxGeometry x="430" y="310" width="120" height="60" as="geometry" />
        </mxCell>
        <mxCell id="f1cEgaaGwQFkEPlIWTJT-5" value="Thread_N" style="rounded=0;whiteSpace=wrap;html=1;" vertex="1" parent="1">
          <mxGeometry x="550" y="310" width="120" height="60" as="geometry" />
        </mxCell>
        <mxCell id="f1cEgaaGwQFkEPlIWTJT-6" value="0" style="rounded=0;whiteSpace=wrap;html=1;" vertex="1" parent="1">
          <mxGeometry x="670" y="310" width="120" height="60" as="geometry" />
        </mxCell>
        <mxCell id="f1cEgaaGwQFkEPlIWTJT-7" value="0" style="rounded=0;whiteSpace=wrap;html=1;" vertex="1" parent="1">
          <mxGeometry x="790" y="310" width="120" height="60" as="geometry" />
        </mxCell>
        <mxCell id="f1cEgaaGwQFkEPlIWTJT-14" value="" style="group" vertex="1" connectable="0" parent="1">
          <mxGeometry x="-20" y="160" width="310" height="60" as="geometry" />
        </mxCell>
        <mxCell id="f1cEgaaGwQFkEPlIWTJT-8" value="Time_ns" style="rounded=0;whiteSpace=wrap;html=1;" vertex="1" parent="f1cEgaaGwQFkEPlIWTJT-14">
          <mxGeometry width="140" height="60" as="geometry" />
        </mxCell>
        <mxCell id="f1cEgaaGwQFkEPlIWTJT-9" value="Thread Count" style="rounded=0;whiteSpace=wrap;html=1;" vertex="1" parent="f1cEgaaGwQFkEPlIWTJT-14">
          <mxGeometry x="140" width="90" height="60" as="geometry" />
        </mxCell>
        <mxCell id="f1cEgaaGwQFkEPlIWTJT-10" value="dummy" style="rounded=0;whiteSpace=wrap;html=1;" vertex="1" parent="f1cEgaaGwQFkEPlIWTJT-14">
          <mxGeometry x="230" width="80" height="60" as="geometry" />
        </mxCell>
        <mxCell id="f1cEgaaGwQFkEPlIWTJT-16" value="" style="shape=flexArrow;endArrow=classic;html=1;rounded=0;" edge="1" parent="1">
          <mxGeometry width="50" height="50" relative="1" as="geometry">
            <mxPoint x="129.5" y="290" as="sourcePoint" />
            <mxPoint x="129.5" y="230" as="targetPoint" />
          </mxGeometry>
        </mxCell>
      </root>
    </mxGraphModel>
  </diagram>
</mxfile>
